<?xml version="1.0" standalone="no"?>
<svg xmlns:xlink="http://www.w3.org/1999/xlink" width="128" height="128" viewBox="0 0 256 256" xmlns="http://www.w3.org/2000/svg"><path d="m229 94.56c18-31-10.76-56.42-14.69-55.44-3.19.79 9.25 33.29-13 28.21-52.47-11.99-108.58-6.76-144.5-1.33-26.12 5.26-10.29-26-13.07-27.93-4-1-34.11 24.77-14.1 55.18a21.34 21.34 0 0 1 3.92 11.75c-5.22 38-6.79 91.91 2.35 99.76 20.9 17 176.33 10.47 189.4-3.93 7.84-6.55 5-56.56-.26-93.22-.05-5.2 1.54-8.97 3.95-13.05z" fill="#191919" id="element_db7b1d1c"/><path d="m112.46 222.94c-29.25 0-69.32-1.94-81.6-11.94l-.16-.13c-4.27-3.67-9.18-12-9.35-44.62a469.07 469.07 0 0 1 4.2-61.68 13.94 13.94 0 0 0 -2.55-6.92c-11.13-16.92-10.78-36.16 1-52.79 1.13-1.74 12.14-16.86 21.64-14.56a8 8 0 0 1 2.61 1.16c5.2 3.54 3.89 9.54 2.75 14.76-.55 2.51-2.21 10-1.2 12.19.42.13 1.95.47 5.45-.23l.37-.07c56.35-8.54 106-8.07 147.45 1.42a8.76 8.76 0 0 0 3.21.29c1.3-2.19.29-10.36 0-13.1-.25-2.06-.47-3.83-.51-5.39-.19-7.68 5-9.57 6.62-10 8.25-2 17.47 9.22 20.1 12.72 6 7.92 18.2 29.1 3.45 54.5-2 3.45-2.75 5.68-2.83 8.56a527.4 527.4 0 0 1 5 58.24c.65 29.46-3 37.48-7.22 41.27-3.29 3.35-10.76 7.56-36.59 11.22a575.58 575.58 0 0 1 -60.47 4.74c-5.7.2-13.1.36-21.37.36zm-71.19-24.12c5.8 4.09 34 9.4 90.1 7.85 50-1.38 83.21-7.44 88.13-11.31l.25-.25c3.67-6.54 3.34-44.49-2.62-86.34a8 8 0 0 1 -.08-1.13 32.58 32.58 0 0 1  5-17.11c4.92-8.47 6.06-17.12 3.39-25.7a35.49 35.49 0 0 0 -2.66-6.28c-.44 4.94-2 9.75-5.83 13.23-3 2.67-8.38 5.41-17.45 3.34-39.48-9-87-9.44-141.31-1.23-8.72 1.71-15.39.29-19.81-4.23a17.16 17.16 0 0 1 -4.65-10 31.92 31.92 0 0 0 -1.73 4.65c-2.4 8.24-.93 16.5 4.36 24.54a29.28 29.28 0 0 1 5.2 16.15 8 8 0 0 1 -.07 1.09 457.63 457.63 0 0 0 -4.14 58.18c-.03 26.8 3.34 33.59 3.92 34.55z" fill="#191919" id="element_321c3987"/><path d="m229 94.56c18-31-10.76-56.42-14.69-55.44-3.19.79 9.25 33.29-13 28.21-52.47-11.99-108.58-6.76-144.5-1.33-26.12 5.26-10.29-26-13.07-27.93-4-1-34.11 24.77-14.1 55.18a21.34 21.34 0 0 1 3.92 11.75c-5.22 38-6.79 91.91 2.35 99.76 20.9 17 176.33 10.47 189.4-3.93 7.84-6.55 5-56.56-.26-93.22-.05-5.2 1.54-8.97 3.95-13.05z" fill="#e83a2a" id="element_94148ccf"/><path d="m68.57 100.85c9.14 2.62 36.57 14.4 39.19 18.33s-18.29 23.57-32.65 14.4c-15.69-9.17-15.69-35.35-6.54-32.73z" fill="#ffffff" id="element_b8cea10a"/><path d="m182.2 133.58c-15.67 9.16-35.27-10.47-32.65-14.4s30-15.71 39.19-18.33 9.14 23.56-6.54 32.73z" fill="#ffffff" id="element_4d222015"/><path d="m127.34 180.71c-45.72 0-67.92-24.87-64-31.42s35.27 13.09 65.31 13.09 62.7-17 65.31-10.47c2.61 5.23-20.9 28.8-66.62 28.8z" fill="#ffffff" id="element_a463b6a4"/></svg>